<mxfile host="app.diagrams.net" agent="Mozilla/5.0 (Macintosh; Intel Mac OS X 10_15_7) AppleWebKit/537.36 (KHTML, like Gecko) Chrome/127.0.0.0 Safari/537.36 Edg/127.0.0.0" version="24.7.6">
  <diagram name="第 1 页" id="0Z_bZ6Rlr1YPG7EyiyMC">
    <mxGraphModel dx="936" dy="577" grid="1" gridSize="10" guides="1" tooltips="1" connect="1" arrows="1" fold="1" page="1" pageScale="1" pageWidth="827" pageHeight="1169" math="0" shadow="0">
      <root>
        <mxCell id="0" />
        <mxCell id="1" parent="0" />
        <mxCell id="pE-F_wfRhueu3PEyNs5t-1" value="" style="rounded=0;whiteSpace=wrap;html=1;fillColor=#dae8fc;strokeColor=#6c8ebf;" parent="1" vertex="1">
          <mxGeometry x="160" y="120" width="240" height="400" as="geometry" />
        </mxCell>
        <mxCell id="pE-F_wfRhueu3PEyNs5t-2" value="Annotation Step" style="rounded=1;whiteSpace=wrap;html=1;fontFamily=Comic Sans MS;fontSize=24;fillColor=#f8cecc;strokeColor=#b85450;" parent="1" vertex="1">
          <mxGeometry x="160" y="20" width="240" height="60" as="geometry" />
        </mxCell>
        <mxCell id="pE-F_wfRhueu3PEyNs5t-3" value="&lt;font style=&quot;font-size: 16px;&quot; face=&quot;Comic Sans MS&quot;&gt;Load and Split Dataset&lt;/font&gt;" style="rounded=0;whiteSpace=wrap;html=1;fillColor=#d5e8d4;strokeColor=#82b366;" parent="1" vertex="1">
          <mxGeometry x="180" y="140" width="200" height="60" as="geometry" />
        </mxCell>
        <mxCell id="pE-F_wfRhueu3PEyNs5t-4" value="&lt;font style=&quot;font-size: 16px;&quot; face=&quot;Comic Sans MS&quot;&gt;Generate Multiprocesses&lt;/font&gt;" style="rounded=0;whiteSpace=wrap;html=1;fillColor=#d5e8d4;strokeColor=#82b366;" parent="1" vertex="1">
          <mxGeometry x="180" y="220" width="200" height="60" as="geometry" />
        </mxCell>
        <mxCell id="pE-F_wfRhueu3PEyNs5t-6" value="" style="rounded=0;whiteSpace=wrap;html=1;fillColor=#d5e8d4;strokeColor=#82b366;" parent="1" vertex="1">
          <mxGeometry x="180" y="300" width="200" height="200" as="geometry" />
        </mxCell>
        <mxCell id="pE-F_wfRhueu3PEyNs5t-7" value="&lt;font style=&quot;font-size: 16px;&quot; face=&quot;Comic Sans MS&quot;&gt;build few-shot prompt and generate prompt&lt;/font&gt;" style="rounded=0;whiteSpace=wrap;html=1;fillColor=#fff2cc;strokeColor=#d6b656;" parent="1" vertex="1">
          <mxGeometry x="190" y="310" width="180" height="80" as="geometry" />
        </mxCell>
        <mxCell id="pE-F_wfRhueu3PEyNs5t-9" value="&lt;font style=&quot;font-size: 16px;&quot; face=&quot;Comic Sans MS&quot;&gt;Call openai API and get Binder program&lt;/font&gt;" style="rounded=0;whiteSpace=wrap;html=1;fillColor=#fff2cc;strokeColor=#d6b656;" parent="1" vertex="1">
          <mxGeometry x="190" y="410" width="180" height="80" as="geometry" />
        </mxCell>
        <mxCell id="pE-F_wfRhueu3PEyNs5t-10" value="" style="rounded=0;whiteSpace=wrap;html=1;fillColor=#dae8fc;strokeColor=#6c8ebf;" parent="1" vertex="1">
          <mxGeometry x="440" y="120" width="240" height="400" as="geometry" />
        </mxCell>
        <mxCell id="pE-F_wfRhueu3PEyNs5t-11" value="Execution Step" style="rounded=1;whiteSpace=wrap;html=1;fontFamily=Comic Sans MS;fontSize=24;fillColor=#f8cecc;strokeColor=#b85450;" parent="1" vertex="1">
          <mxGeometry x="440" y="20" width="240" height="60" as="geometry" />
        </mxCell>
        <mxCell id="pE-F_wfRhueu3PEyNs5t-12" value="&lt;font style=&quot;font-size: 16px;&quot; face=&quot;Comic Sans MS&quot;&gt;Load and Split Dataset&lt;/font&gt;" style="rounded=0;whiteSpace=wrap;html=1;fillColor=#d5e8d4;strokeColor=#82b366;" parent="1" vertex="1">
          <mxGeometry x="460" y="140" width="200" height="60" as="geometry" />
        </mxCell>
        <mxCell id="pE-F_wfRhueu3PEyNs5t-13" value="&lt;font style=&quot;font-size: 16px;&quot; face=&quot;Comic Sans MS&quot;&gt;Generate Multiprocesses&lt;/font&gt;" style="rounded=0;whiteSpace=wrap;html=1;fillColor=#d5e8d4;strokeColor=#82b366;" parent="1" vertex="1">
          <mxGeometry x="460" y="220" width="200" height="60" as="geometry" />
        </mxCell>
        <mxCell id="pE-F_wfRhueu3PEyNs5t-14" value="" style="rounded=0;whiteSpace=wrap;html=1;fillColor=#d5e8d4;strokeColor=#82b366;" parent="1" vertex="1">
          <mxGeometry x="460" y="300" width="200" height="200" as="geometry" />
        </mxCell>
        <mxCell id="pE-F_wfRhueu3PEyNs5t-15" value="&lt;font style=&quot;font-size: 16px;&quot; face=&quot;Comic Sans MS&quot;&gt;Use parser to parse Binder program and generate execution tree&lt;/font&gt;" style="rounded=0;whiteSpace=wrap;html=1;fillColor=#fff2cc;strokeColor=#d6b656;" parent="1" vertex="1">
          <mxGeometry x="470" y="310" width="180" height="80" as="geometry" />
        </mxCell>
        <mxCell id="pE-F_wfRhueu3PEyNs5t-16" value="&lt;font style=&quot;font-size: 16px;&quot; face=&quot;Comic Sans MS&quot;&gt;Use&amp;nbsp;&lt;/font&gt;&lt;font face=&quot;Comic Sans MS&quot;&gt;&lt;span style=&quot;font-size: 16px;&quot;&gt;sqlite3 library to execute SQL&lt;/span&gt;&lt;/font&gt;" style="rounded=0;whiteSpace=wrap;html=1;fillColor=#fff2cc;strokeColor=#d6b656;" parent="1" vertex="1">
          <mxGeometry x="470" y="410" width="180" height="80" as="geometry" />
        </mxCell>
      </root>
    </mxGraphModel>
  </diagram>
</mxfile>
